<svg width="162" height="154" viewBox="0 0 162 154" fill="none" xmlns="http://www.w3.org/2000/svg">
<circle cx="85" cy="77" r="77" fill="#10A0F7" fill-opacity="0.1"/>
<g clip-path="url(#clip0_170_1191)">
<rect x="53" y="27" width="72" height="100" rx="8" fill="white"/>
<path d="M44 -45L88.8803 52.7714" stroke="#CBD5E1" stroke-width="4"/>
<path d="M89.6411 81.7715L133 80.9429" stroke="#CBD5E1" stroke-width="4"/>
<path d="M55.0299 125.686C55.0299 125.686 61.2103 121.381 63.6486 117.4C67.6623 110.847 63.4877 105.141 66 97.8819C68.3923 90.9693 66.2938 95.3351 75.5684 86.5C84.8429 77.6649 122.35 85.6714 122.35 85.6714" stroke="#CBD5E1" stroke-width="4"/>
<path d="M89 12V128" stroke="#CBD5E1" stroke-width="4"/>
<path d="M63.3975 118.229L66.8205 129" stroke="#CBD5E1" stroke-width="4"/>
</g>
<path d="M136.688 98.125L121.5 83.5" stroke="#475569" stroke-width="2" stroke-linecap="round" stroke-linejoin="round"/>
<path d="M110.625 87.625C118.909 87.625 125.625 80.9093 125.625 72.625C125.625 64.3407 118.909 57.625 110.625 57.625C102.341 57.625 95.625 64.3407 95.625 72.625C95.625 80.9093 102.341 87.625 110.625 87.625Z" stroke="url(#paint0_linear_170_1191)" stroke-width="4" stroke-linecap="round" stroke-linejoin="round"/>
<path fill-rule="evenodd" clip-rule="evenodd" d="M110.812 77.875L111.211 78.2721C111.158 78.3246 111.096 78.3662 111.028 78.3946C110.96 78.423 110.886 78.4377 110.812 78.4377C110.738 78.4377 110.665 78.423 110.596 78.3946C110.528 78.3662 110.466 78.3246 110.414 78.2721L110.41 78.2682L110.401 78.2586L110.366 78.2232C110.168 78.0189 109.973 77.8115 109.781 77.6011C109.3 77.0735 108.839 76.5279 108.399 75.9653C107.898 75.3184 107.385 74.5872 106.995 73.8649C106.613 73.1568 106.312 72.3895 106.312 71.6875C106.312 69.1343 108.333 67.1875 110.812 67.1875C113.292 67.1875 115.312 69.1343 115.312 71.6875C115.312 72.3895 115.012 73.1567 114.63 73.8644C114.24 74.5877 113.728 75.3184 113.226 75.9653C112.611 76.7523 111.954 77.506 111.259 78.2232L111.224 78.2586L111.211 78.2716L110.812 77.875ZM110.812 73.375C111.26 73.375 111.689 73.1972 112.006 72.8807C112.322 72.5643 112.5 72.1351 112.5 71.6875C112.5 71.2399 112.322 70.8107 112.006 70.4943C111.689 70.1778 111.26 70 110.812 70C110.365 70 109.936 70.1778 109.619 70.4943C109.303 70.8107 109.125 71.2399 109.125 71.6875C109.125 72.1351 109.303 72.5643 109.619 72.8807C109.936 73.1972 110.365 73.375 110.812 73.375Z" fill="url(#paint1_linear_170_1191)"/>
<rect y="34" width="72" height="28" rx="8" fill="white"/>
<rect x="12" y="42" width="48" height="4" rx="2" fill="url(#paint2_linear_170_1191)"/>
<rect x="12" y="50" width="48" height="4" rx="2" fill="#CBD5E1"/>
<circle cx="70" cy="36" r="3" fill="url(#paint3_linear_170_1191)"/>
<defs>
<linearGradient id="paint0_linear_170_1191" x1="95.625" y1="82.1468" x2="138.897" y2="55.233" gradientUnits="userSpaceOnUse">
<stop stop-color="#10A0F7"/>
<stop offset="1" stop-color="#01E8AD"/>
</linearGradient>
<linearGradient id="paint1_linear_170_1191" x1="106.313" y1="76.3833" x2="120.743" y2="69.203" gradientUnits="userSpaceOnUse">
<stop stop-color="#10A0F7"/>
<stop offset="1" stop-color="#01E8AD"/>
</linearGradient>
<linearGradient id="paint2_linear_170_1191" x1="12" y1="45.2696" x2="13.6933" y2="32.6317" gradientUnits="userSpaceOnUse">
<stop stop-color="#10A0F7"/>
<stop offset="1" stop-color="#01E8AD"/>
</linearGradient>
<linearGradient id="paint3_linear_170_1191" x1="67" y1="37.9044" x2="75.6543" y2="32.5216" gradientUnits="userSpaceOnUse">
<stop stop-color="#10A0F7"/>
<stop offset="1" stop-color="#01E8AD"/>
</linearGradient>
<clipPath id="clip0_170_1191">
<rect x="53" y="27" width="72" height="100" rx="8" fill="white"/>
</clipPath>
</defs>
</svg>
