<svg width="68" height="25" viewBox="0 0 68 25" fill="none" xmlns="http://www.w3.org/2000/svg">
<path d="M14.1221 17.6914C14.2514 17.8714 14.3806 18.0771 14.3806 18.3343C14.3806 18.8743 13.9671 19.3243 13.4115 19.3243C13.0755 19.3243 12.8041 19.17 12.6362 18.9386L10.4912 16.2129H9.52206V18.3343C9.52206 18.9129 9.05688 19.3886 8.47541 19.3886C7.88102 19.3886 7.40292 18.9129 7.40292 18.3343V11.4557C7.40292 10.7743 7.89394 10.2857 8.57878 10.2857H10.9434C12.9592 10.2857 14.2643 11.6486 14.2643 13.2686C14.2643 14.3871 13.6311 15.3643 12.5845 15.8657L14.1221 17.6914ZM9.52206 12.0857V14.4129H10.8271C11.5637 14.4129 12.2097 14.22 12.2097 13.2686C12.2097 12.3043 11.5637 12.0857 10.8271 12.0857H9.52206Z" fill="#0F172A"/>
<path d="M18.6074 12.5229C20.0805 12.5229 21.8637 13.6929 21.8637 15.6214C21.8637 16.4314 21.4243 16.7014 20.5974 16.7014L17.3024 16.6629C17.4833 17.3186 18.013 17.7043 18.8529 17.7043C19.2406 17.7043 19.3052 17.6529 19.667 17.5629C19.9384 17.4729 20.158 17.3571 20.4165 17.3571C20.8429 17.3571 21.1013 17.6529 21.1013 18.0386C21.1013 18.2829 20.9979 18.5786 20.6103 18.8743C20.1709 19.1443 19.5766 19.35 18.7625 19.35C17.0052 19.35 15.1574 18.3086 15.1574 15.9686C15.1574 13.6286 17.1344 12.5229 18.6074 12.5229ZM18.6074 14.2971C18.0001 14.2971 17.4187 14.5671 17.3024 15.3H19.835C19.7058 14.5671 19.2018 14.2971 18.6074 14.2971Z" fill="#0F172A"/>
<path d="M27.3118 12.5357C28.6557 12.5357 29.7153 13.4614 29.7153 15.7243V18.3343C29.7153 18.9 29.2501 19.35 28.6815 19.35C28.1259 19.35 27.6607 18.9 27.6607 18.3343V15.7243C27.6607 14.7214 27.1955 14.2714 26.5107 14.2714C25.4511 14.2714 25.2185 15.3386 25.2185 15.48V18.3343C25.2185 18.9 24.7404 19.35 24.1848 19.35C23.6292 19.35 23.1511 18.9 23.1511 18.3343V13.6029C23.1511 13.0243 23.6292 12.5614 24.1848 12.5614C24.7404 12.5614 25.2185 13.0243 25.2185 13.6029V14.0014C25.2573 13.5257 25.9938 12.5357 27.3118 12.5357Z" fill="#0F172A"/>
<path d="M34.6146 17.55C35.0669 17.55 35.3383 17.82 35.3383 18.2957C35.3383 18.9643 34.7697 19.35 33.7231 19.35C32.7281 19.35 31.7073 19.0414 31.7073 16.92V14.1814H31.4489C30.9449 14.1814 30.6219 13.8471 30.6219 13.3971C30.6219 12.9343 30.9449 12.6 31.4489 12.6H31.7073V11.8543C31.7073 11.2886 32.1854 10.8257 32.741 10.8257C33.2966 10.8257 33.7747 11.2886 33.7747 11.8543V12.6H34.5242C35.0281 12.6 35.3383 12.9343 35.3383 13.3971C35.3383 13.8471 35.0281 14.1814 34.5242 14.1814H33.7747V17.0229C33.7747 17.37 33.8781 17.5886 34.1236 17.5886C34.2528 17.5886 34.4725 17.5371 34.6146 17.55Z" fill="#0F172A"/>
<path d="M43.0042 12.5614C43.1722 12.5614 43.3143 12.7029 43.3143 12.87C43.3143 12.9214 43.3014 12.96 43.2885 12.9986L40.6783 19.0671C40.6137 19.2086 40.5491 19.3114 40.3553 19.3114C40.1744 19.3114 40.0969 19.2086 40.0323 19.0671L37.4221 12.9986C37.4092 12.96 37.3963 12.9214 37.3963 12.87C37.3963 12.7029 37.5384 12.5614 37.7064 12.5614C37.8356 12.5614 37.9519 12.6257 38.0036 12.7543L40.3553 18.2957L42.707 12.7543C42.7587 12.6257 42.875 12.5614 43.0042 12.5614Z" fill="#1E293B"/>
<path d="M47.0785 12.5229C48.5515 12.5229 50.2959 13.6671 50.2959 15.8143C50.2959 16.0586 50.1409 16.2129 49.8695 16.2129H44.4812C44.5717 17.9743 45.9414 18.7843 47.1689 18.7843C47.8408 18.7843 48.5127 18.5657 48.965 18.1543C49.1201 18.0129 49.1976 17.9614 49.288 17.9614C49.456 17.9614 49.5594 18.0771 49.5594 18.2314C49.5594 18.3343 49.5206 18.4114 49.3656 18.5657C48.8099 19.0929 47.983 19.35 47.1689 19.35C45.5537 19.35 43.8222 18.2443 43.8222 15.9429C43.8222 13.6543 45.6054 12.5229 47.0785 12.5229ZM47.0785 13.1014C45.9543 13.1014 44.5975 13.9114 44.4812 15.6471H49.6757C49.5723 13.9114 48.2026 13.1014 47.0785 13.1014Z" fill="#1E293B"/>
<path d="M54.7029 12.5357C54.9742 12.5357 55.1422 12.6643 55.1422 12.8571C55.1422 13.05 54.9742 13.1786 54.7029 13.1786C53.3461 13.1786 52.4029 14.2586 52.2349 15.2486V19.0157C52.2349 19.1957 52.0927 19.35 51.9118 19.35C51.7309 19.35 51.5888 19.1957 51.5888 19.0157V12.8957C51.5888 12.7157 51.7309 12.5614 51.9118 12.5614C52.0927 12.5614 52.2349 12.7157 52.2349 12.8957V14.1943C52.3253 13.7829 53.1781 12.5357 54.7029 12.5357Z" fill="#1E293B"/>
<path d="M58.162 12.5229C59.1828 12.5229 59.9323 12.9729 60.3199 13.6414C60.3975 13.7829 60.4104 13.86 60.4104 13.9371C60.4104 14.0914 60.2812 14.2071 60.1132 14.2071C59.9711 14.2071 59.8935 14.13 59.7514 13.8986C59.493 13.4871 58.989 13.1014 58.1233 13.1014C57.1542 13.1014 56.5727 13.59 56.5727 14.2971C56.5727 14.8757 56.9862 15.2743 57.8648 15.4929L58.7047 15.6986C59.9581 16.0071 60.6817 16.4957 60.6817 17.46C60.6817 18.6686 59.493 19.35 58.162 19.35C57.1025 19.35 56.1075 18.8743 55.8232 18.1286C55.7845 18.0257 55.7328 17.9229 55.7328 17.7943C55.7328 17.5886 55.862 17.46 56.0171 17.46C56.185 17.46 56.2626 17.55 56.3272 17.7429C56.5727 18.4371 57.3092 18.7586 58.162 18.7586C59.1312 18.7586 60.0486 18.36 60.0486 17.4986C60.0486 16.7786 59.48 16.4957 58.7564 16.3157L57.6452 16.0329C56.4693 15.7371 55.9395 15.0943 55.9395 14.31C55.9395 13.2943 56.844 12.5229 58.162 12.5229Z" fill="#1E293B"/>
<path d="M64.7825 12.5229C66.2556 12.5229 68 13.6671 68 15.8143C68 16.0586 67.8449 16.2129 67.5736 16.2129H62.1853C62.2757 17.9743 63.6454 18.7843 64.873 18.7843C65.5449 18.7843 66.2168 18.5657 66.6691 18.1543C66.8241 18.0129 66.9017 17.9614 66.9921 17.9614C67.1601 17.9614 67.2635 18.0771 67.2635 18.2314C67.2635 18.3343 67.2247 18.4114 67.0696 18.5657C66.514 19.0929 65.687 19.35 64.873 19.35C63.2578 19.35 61.5263 18.2443 61.5263 15.9429C61.5263 13.6543 63.3095 12.5229 64.7825 12.5229ZM64.7825 13.1014C63.6584 13.1014 62.3016 13.9114 62.1853 15.6471H67.3798C67.2764 13.9114 65.9067 13.1014 64.7825 13.1014Z" fill="#1E293B"/>
<path d="M13.4806 25V22.9027C10.921 22.8468 6.74031 22.7349 4.18068 22.7349C2.21832 22.7349 2.33208 21.4485 2.21832 20.8054V7.55034L10.409 2.68456L18.7704 7.55034V9.73154H20.8181V6.45973L10.409 0L0 6.45973V21.3926C3.30688e-05 23.9094 1.79172 24.9161 3.66876 25H13.4806Z" fill="url(#paint0_linear_288_2715)"/>
<defs>
<linearGradient id="paint0_linear_288_2715" x1="1.77682e-05" y1="20.4348" x2="35.221" y2="-39.1507" gradientUnits="userSpaceOnUse">
<stop stop-color="#10A0F7"/>
<stop offset="1" stop-color="#01E8AD"/>
</linearGradient>
</defs>
</svg>
